<svg version="1.1" id="icon_bauten" xmlns="http://www.w3.org/2000/svg" xmlns:xlink="http://www.w3.org/1999/xlink" x="0px" y="0px" width="32px" height="32px"
	 viewBox="0 0 79.4 79.4" enable-background="new 0 0 79.4 79.4" xml:space="preserve">
<g>
	<circle fill="#215B7F" cx="39.7" cy="39.5" r="36.2"/>
	<path fill="#FFFFFF" d="M35.3,59.9c-3.8,0-7.5,0-11.3,0c0-7.5,0-15.1,0-22.6c-0.8,0-1.6,0-2.3,0c-0.8,0-1.6,0-2.4,0
		c-0.4,0-0.8-0.1-1-0.5c-0.2-0.4,0-0.8,0.3-1.1c2.8-2.8,5.6-5.6,8.5-8.5c3.9-3.9,7.8-7.8,11.8-11.8c0.7-0.7,1-0.7,1.6,0
		c5.7,5.7,11.4,11.4,17.1,17.1c1,1,2.1,2.1,3.1,3.1c0.3,0.3,0.5,0.7,0.3,1.1c-0.2,0.4-0.5,0.5-1,0.5c-1.5,0-3.1,0-4.7,0
		c0,7.6,0,15.1,0,22.7c-3.8,0-7.5,0-11.4,0c0-0.2,0-0.4,0-0.6c0-4,0-8,0-12c0-0.2,0-0.3,0-0.5c0-0.5-0.4-0.8-0.9-0.8
		c-2.3,0-4.6,0-6.8,0c-0.7,0-1,0.3-1,1.1c0,3.2,0,6.4,0,9.6C35.3,57.7,35.3,58.8,35.3,59.9z"/>
</g>
</svg>
