<?xml version="1.0" encoding="utf-8"?>
<!-- Generator: Adobe Illustrator 27.1.1, SVG Export Plug-In . SVG Version: 6.00 Build 0)  -->
<svg version="1.1" id="Capa_1" xmlns="http://www.w3.org/2000/svg" xmlns:xlink="http://www.w3.org/1999/xlink" x="0px" y="0px"
	 viewBox="0 0 36.2 36.2" enable-background="new 0 0 36.2 36.2" xml:space="preserve">
<g>
	<path fill="#828382" d="M23.9,20.5c0,3.2-2.6,5.8-5.8,5.8s-5.8-2.6-5.8-5.8s2.6-5.8,5.8-5.8S23.9,17.3,23.9,20.5z M36.2,12.2v16.6
		c0,2.2-1.8,4-4,4H4c-2.2,0-4-1.8-4-4V12.2c0-2.2,1.8-4,4-4h4.9V6.9c0-1.9,1.6-3.5,3.5-3.5h11.3c1.9,0,3.5,1.6,3.5,3.5v1.4h4.9
		C34.4,8.2,36.2,10,36.2,12.2z M26.9,20.5c0-4.9-4-8.8-8.8-8.8c-4.9,0-8.8,4-8.8,8.8s4,8.8,8.8,8.8C23,29.4,26.9,25.4,26.9,20.5z"/>
</g>
</svg>
