<svg version="1.1" id="icon_geschichte" xmlns="http://www.w3.org/2000/svg" xmlns:xlink="http://www.w3.org/1999/xlink" x="0px" y="0px" width="32px" height="32px"
	 viewBox="0 0 79.4 79.4" enable-background="new 0 0 79.4 79.4" xml:space="preserve">
<g>
	<circle fill="#BF581C" cx="39.7" cy="39.5" r="36.2"/>
	<g>
		<path fill="#FFFFFF" d="M40.7,31.1c0-1.3-0.8-2.2-1.9-2.2c-1.2,0-1.9,0.8-1.9,2.2c0,1.5,0,2.9,0,4.4c0,1.5,0,2.9,0,4.4
			c0,1.2,0.5,2,1.5,2.6c2.5,1.5,5,3,7.6,4.5c1.1,0.6,2.2,0.4,2.8-0.5c0.6-1,0.3-2.1-0.8-2.7c-2.2-1.3-4.4-2.6-6.6-3.9
			c-0.5-0.3-0.7-0.6-0.7-1.1C40.8,36.2,40.8,33.6,40.7,31.1z"/>
		<path fill="#FFFFFF" d="M40.2,16C28,16,18,25.6,17.2,37.6H13c-1,0-1.6,1.2-0.9,2l6.9,7.8c0.5,0.5,1.3,0.5,1.8,0l6.9-7.8
			c0.7-0.8,0.1-2-0.9-2h-4.4c0.8-9.1,8.5-16.3,17.8-16.3c9.9,0,17.9,8,17.9,17.9s-8,17.9-17.9,17.9c-4,0-7.7-1.3-10.9-3.7
			c-1.1-0.9-2.8-0.7-3.7,0.5c-0.9,1.2-0.7,2.8,0.5,3.7c4.1,3.1,8.9,4.8,14.1,4.8c12.8,0,23.1-10.4,23.1-23.1S53,16,40.2,16z"/>
	</g>
</g>
</svg>
