<svg version="1.1" id="icon_kultur" xmlns="http://www.w3.org/2000/svg" xmlns:xlink="http://www.w3.org/1999/xlink" x="0px" y="0px" width="32px" height="32px"
	 viewBox="0 0 79.4 79.4" enable-background="new 0 0 79.4 79.4" xml:space="preserve">
<g>
	<circle fill="#B1003E" cx="39.9" cy="39.5" r="36.2"/>
	<path fill="#FFFFFF" d="M54.6,20.9c-4,1.5-10,3.7-14.4,3.5c-4.4-0.2-9.6-1.7-14.5-3.3s-10-2.3-8.2,14.5S26.5,66,39.2,65.8
		c12.2-0.2,20.7-12.4,22.8-29.2C64.2,19.8,58.7,19.4,54.6,20.9z M22.6,36.1c-0.5-0.7,0.1-3.2,5.2-3.1s7.9,3.4,7.4,4.7
		s-1.4,1.7-6.9,0.7C23.1,37.5,23.2,36.8,22.6,36.1z M39.7,57.1c-7-0.1-8.2-7.8-8.2-7.8s7.8,6,16.9,0C48.3,49.3,46.7,57.2,39.7,57.1z
		 M57.1,36.1c-0.5,0.7-0.5,1.4-5.7,2.3c-5.6,1-6.4,0.5-6.9-0.7c-0.5-1.3,2.3-4.6,7.4-4.7S57.6,35.4,57.1,36.1z"/>
</g>
</svg>
