<svg version="1.1" id="icon_landschaft" xmlns="http://www.w3.org/2000/svg" xmlns:xlink="http://www.w3.org/1999/xlink" x="0px" y="0px" width="32px" height="32px"
	 viewBox="0 0 79.4 79.4" enable-background="new 0 0 79.4 79.4" xml:space="preserve">
<g>
	<circle fill="#3773A7" cx="39.7" cy="39.5" r="36.2"/>
	<g>
		<path fill="#FFFFFF" d="M41,56.3c-8.4,0-16.8,0-25.2,0c-0.1,0-0.3,0-0.5,0c-0.4,0-0.5-0.3-0.4-0.7c0.1-0.2,0.2-0.3,0.3-0.4
			C19.8,48.5,24.4,41.7,29,35c0-0.1,0.1-0.1,0.1-0.2c0.4-0.5,0.8-0.5,1.1,0c0.8,1.2,1.6,2.3,2.4,3.5c1,1.4,2,2.9,2.9,4.3
			c0.5,0.7,0.8,0.7,1.3,0c3.3-4.9,6.7-9.8,10-14.7c0.5-0.8,0.8-0.8,1.4,0c6.2,9.1,12.5,18.3,18.7,27.4c0.1,0.1,0.2,0.2,0.2,0.4
			c0.2,0.3,0,0.6-0.3,0.6c-0.2,0-0.3,0-0.5,0C57.9,56.3,49.5,56.3,41,56.3z"/>
		<path fill="#FFFFFF" d="M29.4,13.7c3.7,0,6.6,3,6.6,6.6c0,3.7-3,6.6-6.6,6.6c-3.7,0-6.7-3-6.7-6.6C22.8,16.6,25.8,13.7,29.4,13.7z
			"/>
	</g>
</g>
</svg>
