<?xml version="1.0" encoding="utf-8"?>
<!-- Generator: Adobe Illustrator 27.1.1, SVG Export Plug-In . SVG Version: 6.00 Build 0)  -->
<svg version="1.1" id="Ebene_1" xmlns="http://www.w3.org/2000/svg" xmlns:xlink="http://www.w3.org/1999/xlink" x="0px" y="0px" width="156px" height="18px"
	 viewBox="0 0 156 18" enable-background="new 0 0 156 18" xml:space="preserve">
<path fill="none" d="M139.3,7.7c-0.5,0-0.8,0.1-1.1,0.4c-0.3,0.3-0.4,0.7-0.4,1.1h3.1c0-0.5-0.2-0.8-0.4-1.1
	C140.2,7.9,139.8,7.7,139.3,7.7z"/>
<path fill="none" d="M47.5,7.8c-0.5,0-0.9,0.2-1.2,0.5c-0.2,0.2-0.3,0.5-0.4,0.9c1,0,2.1-0.1,3.1-0.1c-0.1-0.3-0.2-0.6-0.4-0.8
	C48.4,8,48,7.8,47.5,7.8z"/>
<path fill="none" d="M71,8.4c0.2,0,0.3,0,0.5,0c-0.1,0-0.1,0-0.2,0C71.1,8.3,71.1,8.3,71,8.4z"/>
<path fill="none" d="M22.5,8.7c-0.2-0.2-0.5-0.3-0.9-0.3c-0.4,0-0.7,0.1-0.9,0.3s-0.3,0.5-0.3,0.9v1.7c0.3,0,0.6-0.1,0.9-0.1
	c0.5-0.1,1-0.1,1.4-0.2V9.6C22.8,9.2,22.7,8.9,22.5,8.7z"/>
<path fill="#1E1E1C" d="M9.5,11.7H4.1v-1.6h4.1V7.4H4.1V5.7h5.4V2.9h-9v11.7h6.3c0.9-0.3,1.8-0.6,2.7-0.9V11.7z"/>
<path fill="#1E1E1C" d="M14.5,5.6H11v7.7c1.1-0.3,2.3-0.6,3.5-0.9V5.6z"/>
<path fill="#1E1E1C" d="M12.8,4.6c0.6,0,1.1-0.2,1.5-0.6s0.6-0.9,0.6-1.5s-0.2-1.1-0.6-1.5s-0.9-0.6-1.5-0.6s-1.1,0.2-1.5,0.6
	S10.7,2,10.7,2.5s0.2,1.1,0.6,1.5S12.2,4.6,12.8,4.6z"/>
<path fill="#1E1E1C" d="M20.5,9.6c0-0.4,0.1-0.7,0.3-0.9s0.5-0.3,0.9-0.3c0.4,0,0.7,0.1,0.9,0.3s0.3,0.5,0.3,0.9v1.4
	c1.2-0.2,2.3-0.3,3.5-0.4V9.3c0-1.2-0.4-2.2-1.1-2.9s-1.7-1.1-2.8-1.1c-1.1,0-2.1,0.3-2.9,1c-0.4-0.6-1.1-1-2-1
	c-0.6,0-1.2,0.2-1.7,0.5L15.7,6l0.4,2.3l0.2,0.1c0.1-0.1,0.1-0.1,0.3-0.1c0.3,0,0.4,0.2,0.4,0.6v2.9c1.1-0.2,2.3-0.4,3.5-0.6V9.6z"
	/>
<path fill="#1E1E1C" d="M35.8,8.1V5.6h-7.9v2.5h3.9l-2.1,2c1.5-0.1,3-0.3,4.5-0.4L35.8,8.1z"/>
<path fill="#1E1E1C" d="M39.3,4.6c0.6,0,1.1-0.2,1.5-0.6s0.6-0.9,0.6-1.5s-0.2-1.1-0.6-1.5s-0.9-0.6-1.5-0.6s-1.1,0.2-1.5,0.6
	S37.2,2,37.2,2.5s0.2,1.1,0.6,1.5S38.7,4.6,39.3,4.6z"/>
<path fill="#1E1E1C" d="M41,5.6h-3.5v4c1.2-0.1,2.3-0.1,3.5-0.2V5.6z"/>
<path fill="#1E1E1C" d="M46.3,8.3C46.6,8,47,7.8,47.5,7.8s0.9,0.2,1.2,0.5C48.9,8.5,49,8.8,49,9.1C50.2,9,51.3,9,52.4,9
	c0-0.3,0.1-0.5,0.4-0.5c0.1,0,0.2,0,0.3,0.1l0.2-0.1L53.7,6l-0.1-0.2c-0.5-0.3-1.1-0.5-1.7-0.5c-0.9,0-1.6,0.3-2.1,1
	c-0.9-0.7-1.9-1-3-1c-1.3,0-2.3,0.4-3.2,1.2c-0.8,0.7-1.2,1.7-1.2,2.8c1.2-0.1,2.4-0.1,3.6-0.1C46,8.8,46.1,8.5,46.3,8.3z"/>
<path fill="#1E1E1C" d="M63,7.3c-0.3-0.5-0.6-0.8-1.1-1.1S61,5.7,60.5,5.5s-1.1-0.2-1.7-0.2c-1.6,0-2.9,0.5-4,1.4V7l1.5,1.4h0.2
	C56.8,8.3,57,8.1,57.4,8c0.3-0.1,0.7-0.2,1.1-0.2c0.5,0,0.9,0.1,1.1,0.3c0.2,0.2,0.3,0.4,0.4,0.7c1.1,0,2.3-0.1,3.4-0.1
	C63.4,8.1,63.2,7.7,63,7.3z"/>
<path fill="#1E1E1C" d="M71.2,8.3c0.1,0,0.1,0,0.2,0c0.5,0,0.9,0,1.4-0.1L73.5,6l-0.1-0.2c-0.6-0.3-1.2-0.5-1.9-0.5
	c-1,0-1.9,0.4-2.7,1.1c-0.2-0.4-0.5-0.6-0.8-0.8s-0.7-0.3-1.1-0.3c-0.6,0-1.2,0.2-1.7,0.5L65,6l0.4,2.3l0.2,0.1
	c0.1-0.1,0.1-0.1,0.2-0.1c0.1,0,0.2,0,0.3,0.1c1.6-0.1,3.3-0.1,4.9-0.2C71.1,8.3,71.1,8.3,71.2,8.3z"/>
<path fill="#1E1E1C" d="M81.2,5.6h-2.6V2.8l-0.3-0.2L75.2,3v2.5h-1.6v2.5h1.6v0.1c2-0.1,4-0.2,6-0.4V5.6z"/>
<path fill="#1E1E1C" d="M84.4,4.6c0.6,0,1.1-0.2,1.5-0.6s0.6-0.9,0.6-1.5s-0.2-1.1-0.6-1.5S85,0.5,84.4,0.5S83.4,0.7,83,1.1
	S82.4,2,82.4,2.5S82.6,3.6,83,4S83.9,4.6,84.4,4.6z"/>
<path fill="#1E1E1C" d="M86.2,5.6h-3.5v2.1c1.2-0.1,2.4-0.2,3.5-0.3V5.6z"/>
<path fill="#1E1E1C" d="M97,5.3c-0.9,0-1.6,0.3-2,0.9c1.2-0.2,2.4-0.4,3.5-0.6C98.1,5.5,97.6,5.3,97,5.3z"/>
<path fill="#1E1E1C" d="M91.9,5.3c-1.3,0-2.3,0.4-3.2,1.2c-0.2,0.2-0.4,0.4-0.5,0.6c2.3-0.2,4.5-0.5,6.7-0.8C94,5.7,93,5.3,91.9,5.3
	z"/>
<path fill="#1E1E1C" d="M103.5,2.5l-0.3-0.2L100,2.7v2.7c1.2-0.2,2.4-0.5,3.5-0.7V2.5z"/>
<path fill="#1E1E1C" d="M131.3,14.8c1,0,1.8-0.3,2.5-0.8l0.1-0.3l-0.4-0.9C132.7,13.5,132,14.2,131.3,14.8
	C131.2,14.8,131.2,14.8,131.3,14.8z"/>
<path fill="#1E1E1C" d="M140.1,5.4c-0.5,0.7-1,1.4-1.5,2.1c-1.2,1.5-2.5,2.9-3.9,4.3c0,0.1,0.1,0.3,0.1,0.4c0.3,0.6,0.7,1.1,1.2,1.5
	c0.5,0.4,1,0.7,1.7,0.9c0.6,0.2,1.3,0.3,2,0.3c0.8,0,1.5-0.1,2.3-0.4c0.7-0.3,1.3-0.7,1.8-1.2v-0.2l-1.5-1.5H142
	c-0.6,0.5-1.3,0.8-2.2,0.8c-0.6,0-1-0.1-1.4-0.4s-0.6-0.6-0.7-1.1h6.4c0-0.2,0.1-0.5,0.1-0.8c0-1.4-0.4-2.6-1.3-3.4
	C142.2,5.9,141.2,5.5,140.1,5.4z M137.8,9.3c0-0.5,0.2-0.8,0.4-1.1c0.3-0.3,0.7-0.4,1.1-0.4s0.8,0.1,1.1,0.4
	c0.3,0.3,0.4,0.7,0.4,1.1H137.8z"/>
<path fill="#1E1E1C" d="M154.4,6.4c-0.7-0.7-1.7-1.1-2.8-1.1c-1.1,0-2.1,0.3-2.9,1c-0.4-0.6-1.1-1-2-1c-0.6,0-1.2,0.2-1.7,0.5
	L144.9,6l0.4,2.3l0.2,0.1c0.1-0.1,0.1-0.1,0.3-0.1c0.3,0,0.4,0.2,0.4,0.6v5.6h3.5v-5c0-0.4,0.1-0.7,0.3-0.9c0.2-0.2,0.5-0.3,0.9-0.3
	c0.4,0,0.7,0.1,0.9,0.3s0.3,0.5,0.3,0.9v5h3.5V9.3C155.5,8.1,155.1,7.1,154.4,6.4z"/>
<path fill="#549E97" d="M95,6.3c0,0-0.1,0-0.1,0C94.9,6.3,94.9,6.3,95,6.3C95,6.3,95,6.3,95,6.3z"/>
<path fill="#549E97" d="M9.5,13.7c-0.9,0.3-1.8,0.6-2.7,0.9h2.7V13.7z"/>
<path fill="#549E97" d="M14.5,14.6v-2.2c-1.2,0.3-2.4,0.6-3.5,0.9v1.3H14.5z"/>
<path fill="#549E97" d="M20.5,14.6v-3.3c-1.2,0.2-2.4,0.4-3.5,0.6v2.7H20.5z"/>
<path fill="#549E97" d="M22.8,14.6h3.5v-4.1c-1.2,0.1-2.4,0.3-3.5,0.4V14.6z"/>
<path fill="#549E97" d="M27.7,14.6h8.4V12H32l2.2-2.3c-1.5,0.1-3,0.2-4.5,0.4l-2,1.9V14.6z"/>
<path fill="#549E97" d="M41,14.6V9.4c-1.2,0.1-2.4,0.1-3.5,0.2v5H41z"/>
<path fill="#549E97" d="M43.6,12.6c0.8,0.8,1.9,1.2,3.2,1.2c0.8,0,1.6-0.2,2.4-0.6v0.2c0,0.3-0.1,0.6-0.3,0.8s-0.5,0.4-0.8,0.5
	s-0.6,0.1-1,0.1c-0.5,0-1.1-0.1-1.6-0.3s-0.9-0.5-1.3-0.8h-0.3l-1.4,1.8v0.2c0.5,0.5,1.1,0.9,1.9,1.2s1.6,0.4,2.6,0.4
	c0.8,0,1.5-0.1,2.2-0.3s1.2-0.5,1.7-0.9s0.9-0.9,1.1-1.5s0.4-1.3,0.4-2V9c0,0,0,0,0,0C51.3,9,50.2,9,49,9.1c0,0.2,0.1,0.3,0.1,0.5
	c0,0.5-0.1,0.9-0.4,1.3s-0.7,0.5-1.2,0.5s-0.9-0.2-1.2-0.5s-0.5-0.7-0.5-1.3c0-0.1,0-0.3,0.1-0.4c-1.2,0-2.4,0.1-3.6,0.1
	c0,0.1,0,0.2,0,0.3C42.3,10.8,42.8,11.8,43.6,12.6z"/>
<path fill="#549E97" d="M60,9.2C59.4,9.1,58.9,9,58.3,9c-0.8,0-1.4,0.1-2,0.3s-1.1,0.5-1.5,1s-0.6,1-0.6,1.6c0,0.9,0.4,1.6,1.1,2.1
	s1.6,0.8,2.7,0.8c1.1,0,2.1-0.3,2.9-0.9c0.5,0.6,1.1,0.9,2,0.9c0.6,0,1.2-0.2,1.7-0.5l0.1-0.2l-0.4-2.3l-0.2-0.1
	c-0.1,0.1-0.1,0.1-0.2,0.1c-0.3,0-0.4-0.2-0.4-0.6V8.9c0-0.1,0-0.1,0-0.2c-1.1,0-2.3,0.1-3.4,0.1c0,0.1,0,0.1,0,0.2V9.2z M60,11.6
	c0,0.3-0.1,0.5-0.3,0.7s-0.5,0.3-0.9,0.3c-0.3,0-0.6-0.1-0.8-0.2s-0.3-0.4-0.3-0.7c0-0.3,0.1-0.5,0.3-0.7s0.5-0.3,0.9-0.3
	c0.3,0,0.7,0.1,1.1,0.2V11.6z"/>
<path fill="#549E97" d="M72.6,8.6l0.2-0.1l0.1-0.2c-0.5,0-0.9,0-1.4,0.1C71.8,8.4,72.2,8.5,72.6,8.6z"/>
<path fill="#549E97" d="M66.2,9v5.6h3.5V9.9c0-0.5,0.1-0.9,0.4-1.2c0.2-0.2,0.5-0.3,0.8-0.4c-1.6,0.1-3.3,0.1-4.9,0.2
	C66.2,8.6,66.2,8.8,66.2,9z"/>
<path fill="#549E97" d="M75.4,12.4c0.1,0.4,0.3,0.8,0.6,1.1s0.5,0.5,0.8,0.7s0.7,0.3,1,0.4s0.7,0.1,1.1,0.1c1,0,1.8-0.3,2.5-0.8
	l0.1-0.3l-0.9-2.1l-0.2-0.1c-0.3,0.2-0.5,0.3-0.8,0.3c-0.3,0-0.5-0.1-0.6-0.3s-0.3-0.5-0.3-0.9V8.1h2.6V7.8c-2,0.1-4,0.3-6,0.4v2.9
	C75.2,11.6,75.2,12,75.4,12.4z"/>
<path fill="#549E97" d="M86.2,14.6V7.4c-1.2,0.1-2.3,0.2-3.5,0.3v6.9H86.2z"/>
<path fill="#549E97" d="M88.8,12.6c0.8,0.8,1.9,1.2,3.2,1.2c0.8,0,1.6-0.2,2.4-0.6v0.2c0,0.3-0.1,0.6-0.3,0.8s-0.5,0.4-0.8,0.5
	s-0.6,0.1-1,0.1c-0.5,0-1.1-0.1-1.6-0.3c-0.5-0.2-0.9-0.5-1.3-0.8h-0.3l-1.4,1.8v0.2c0.5,0.5,1.1,0.9,1.9,1.2s1.6,0.4,2.6,0.4
	c0.8,0,1.5-0.1,2.2-0.3s1.2-0.5,1.7-0.9s0.9-0.9,1.1-1.5c0.3-0.6,0.4-1.3,0.4-2V9c0-0.4,0.1-0.6,0.4-0.6c0.1,0,0.2,0,0.3,0.1
	l0.2-0.1L98.8,6l-0.1-0.2c-0.1,0-0.1-0.1-0.2-0.1c-1.2,0.2-2.3,0.4-3.5,0.6c0,0,0,0,0,0.1c0,0,0,0-0.1,0c-2.2,0.3-4.4,0.6-6.7,0.8
	c-0.5,0.7-0.8,1.5-0.8,2.4C87.5,10.8,87.9,11.8,88.8,12.6z M91.5,8.3c0.3-0.3,0.7-0.5,1.2-0.5s0.9,0.2,1.2,0.5
	c0.3,0.3,0.4,0.7,0.4,1.3s-0.1,0.9-0.4,1.3s-0.7,0.5-1.2,0.5s-0.9-0.2-1.2-0.5c-0.3-0.3-0.5-0.7-0.5-1.3S91.2,8.6,91.5,8.3z"/>
<path fill="#549E97" d="M103.5,14.6v-3.1l0.1-0.2l1.7,2c0.5,0.6,0.9,0.9,1.4,1.1s1,0.3,1.5,0.3c0.6,0,1.1-0.1,1.5-0.4l0.1-0.3
	l-0.4-2.5l-0.2-0.1c-0.1,0.1-0.3,0.2-0.5,0.2c-0.3,0-0.6-0.2-0.9-0.5l-1.5-1.6l3.1-3.7l-0.1-0.2h-3.6l-2.2,2.9V4.7
	c-1.2,0.3-2.3,0.5-3.5,0.7v9.1H103.5z"/>
<path fill="#549E97" d="M115,5.3c-1.5,0-2.7,0.4-3.6,1.3s-1.4,2-1.4,3.4c0,0.8,0.1,1.4,0.4,2c0.3,0.6,0.7,1.1,1.2,1.5
	c0.5,0.4,1,0.7,1.7,0.9c0.6,0.2,1.3,0.3,2,0.3c0.8,0,1.5-0.1,2.3-0.4c0.7-0.3,1.3-0.7,1.8-1.2v-0.2l-1.5-1.5h-0.2
	c-0.6,0.5-1.3,0.8-2.2,0.8c-0.6,0-1-0.1-1.4-0.4s-0.6-0.6-0.7-1.1h6.4c0-0.2,0.1-0.5,0.1-0.8c0-1.4-0.4-2.6-1.3-3.4
	S116.5,5.3,115,5.3z M113.4,9.3c0-0.5,0.2-0.8,0.4-1.1c0.3-0.3,0.7-0.4,1.1-0.4s0.8,0.1,1.1,0.4c0.3,0.3,0.4,0.7,0.4,1.1H113.4z"/>
<rect x="121.3" y="5.6" fill="#549E97" width="3.5" height="9"/>
<path fill="#549E97" d="M123,0.5c-0.6,0-1.1,0.2-1.5,0.6S121,2,121,2.5s0.2,1.1,0.6,1.5s0.9,0.6,1.5,0.6s1.1-0.2,1.5-0.6
	s0.6-0.9,0.6-1.5s-0.2-1.1-0.6-1.5S123.6,0.5,123,0.5z"/>
<path fill="#549E97" d="M132.7,11.5c-0.3,0.2-0.5,0.3-0.8,0.3c-0.3,0-0.5-0.1-0.6-0.3S131,11,131,10.6V8.1h2.6V5.6H131V2.8l-0.3-0.2
	L127.5,3v2.5h-1.6v2.5h1.6v3c0,0.5,0.1,1,0.2,1.4s0.3,0.8,0.6,1.1c0.2,0.3,0.5,0.5,0.8,0.7s0.7,0.3,1,0.4c0.3,0.1,0.7,0.1,1.1,0.1
	c0.8-0.6,1.5-1.2,2.3-1.9l-0.6-1.2L132.7,11.5z"/>
<path fill="#549E97" d="M140.1,5.4c-0.2,0-0.5-0.1-0.7-0.1c-1.5,0-2.7,0.4-3.6,1.3s-1.4,2-1.4,3.4c0,0.6,0.1,1.2,0.3,1.7
	c1.4-1.3,2.7-2.8,3.9-4.3C139.1,6.8,139.6,6.1,140.1,5.4z"/>
</svg>
