<svg version="1.1" id="icon_natur" xmlns="http://www.w3.org/2000/svg" xmlns:xlink="http://www.w3.org/1999/xlink" x="0px" y="0px" width="32px" height="32px"
	 viewBox="0 0 79.4 79.4" enable-background="new 0 0 79.4 79.4" xml:space="preserve">
<g>
	<circle fill="#5DA441" cx="39.7" cy="39.5" r="36.2"/>
	<path fill="#FFFFFF" d="M59.1,53.9c-3.9-6.1-7.7-12.1-11.5-18.2h9.2c0.8,0,1.2-0.9,0.7-1.6c-5.9-7.1-11.7-14-17.7-21.3
		c-0.4-0.5-1.1-0.5-1.5,0L20.7,34.2c-0.5,0.6-0.1,1.5,0.7,1.5h9.2L19.1,53.9c-0.6,0.9-0.1,2.2,0.8,2.2H35v6.6c0,0.7,0.6,1.3,1.3,1.3
		h5.5c0.7,0,1.3-0.6,1.3-1.3v-6.6h15.1C59.2,56.1,59.6,54.8,59.1,53.9z"/>
</g>
</svg>
