<svg version="1.1" id="icon_wasser" xmlns="http://www.w3.org/2000/svg" xmlns:xlink="http://www.w3.org/1999/xlink" x="0px" y="0px" width="32px" height="32px"
	 viewBox="0 0 79.4 79.4" enable-background="new 0 0 79.4 79.4" xml:space="preserve">
<g>
	<circle fill="#57978C" cx="39.7" cy="39.7" r="36.2"/>
	<path fill="#FFFFFF" d="M38,62c-1.1-0.2-2.2-0.3-3.2-0.6c-2.9-0.8-5.4-2.3-7.5-4.5c-2.6-2.7-4.1-6-4.5-9.7c-0.3-2.3,0.2-4.5,1-6.7
		c1.9-5.1,4.6-9.7,7.5-14.2c1.8-2.8,5.4-7.8,7-10.1c0.5-0.6,1.4-0.6,1.8,0c0.8,1,1.6,2.1,2.3,3.1c2.1,3.1,4.3,6.3,6.3,9.5
		c2.4,3.8,4.6,7.8,6.1,12.1c1.8,5.2,0.8,10-2.4,14.3c-2.5,3.4-5.9,5.5-10,6.4c-0.6,0.1-1.3,0.2-2,0.3C39.7,62,38.8,62,38,62z"/>
</g>
</svg>
